<?xml version="1.0" encoding="UTF-8"?>
<!DOCTYPE svg PUBLIC "-//W3C//DTD SVG 1.1//EN" "http://www.w3.org/Graphics/SVG/1.1/DTD/svg11.dtd">
<!-- Creator: CorelDRAW X8 -->
<svg xmlns="http://www.w3.org/2000/svg" xml:space="preserve" width="300px" height="55px" version="1.1" style="shape-rendering:geometricPrecision; text-rendering:geometricPrecision; image-rendering:optimizeQuality; fill-rule:evenodd; clip-rule:evenodd"
viewBox="0 0 300 55"
 xmlns:xlink="http://www.w3.org/1999/xlink">
 <defs>
  <style type="text/css">
   <![CDATA[
    .fil1 {fill:#FF6600}
    .fil2 {fill:#FF6600;fill-rule:nonzero}
    .fil0 {fill:white;fill-rule:nonzero}
   ]]>
  </style>
 </defs>
 <g id="Layer_x0020_1">
  <metadata id="CorelCorpID_0Corel-Layer"/>
  <g id="_2091722896672">
   <path class="fil0" d="M111 14l0 -6 -11 0 0 6 3 0 0 23 -3 0 0 6 20 0 0 -10 -5 0 0 4 -6 0 0 -23 2 0zm21 23l0 -9 8 0 0 -5 -8 0 0 -9 6 0 0 4 6 0 0 -10 -20 0 0 6 2 0 0 23 -2 0 0 6 20 0 0 -10 -6 0 0 4 -6 0zm24 -3l-1 3 2 0 0 6 -10 0 0 -6 2 0 7 -29 6 0 6 29 3 0 0 6 -10 0 0 -6 2 0 -1 -3 -6 0zm5 -6l-2 -8 -2 8 4 0zm16 -20l-4 4 0 27 4 4 11 0 5 -4 0 -16 -9 0 0 5 3 0 0 9 -8 0 0 -23 8 0 0 4 6 0 0 -6 -5 -4 -11 0zm35 29l0 -23 -3 0 0 -6 11 0 0 6 -2 0 0 25 -5 4 -10 0 -5 -4 0 -25 -2 0 0 -6 11 0 0 6 -3 0 0 23 8 0zm19 0l0 -9 8 0 0 -5 -8 0 0 -9 6 0 0 4 6 0 0 -10 -20 0 0 6 2 0 0 23 -2 0 0 6 20 0 0 -10 -6 0 0 4 -6 0zm37 0l-2 0 0 6 11 0 0 -6 -3 0 0 -23 3 0 0 -6 -11 0 0 6 2 0 0 9 -7 0 0 -9 3 0 0 -6 -11 0 0 6 2 0 0 23 -2 0 0 6 11 0 0 -6 -3 0 0 -9 7 0 0 9zm24 -2l-3 2 -3 0 0 -23 8 0 0 23 -2 -2zm-8 -27l-4 4 0 26 4 5 8 0 4 4 4 -4 -2 -2 2 -3 0 -26 -5 -4 -11 0z"/>
   <path class="fil1" d="M40 0c22,0 40,12 40,27 0,16 -18,28 -40,28 -22,0 -40,-12 -40,-28 0,-15 18,-27 40,-27z"/>
   <path class="fil2" d="M40 0c-9,0 -18,3 -25,7l0 41c7,4 16,7 25,7 10,0 18,-3 25,-7l0 -41c-6,-4 -15,-7 -25,-7z"/>
   <path class="fil0" d="M53 31l0 0 -2 0 0 6c0,2 -1,3 -3,3 -2,0 -3,-1 -3,-3l0 -6 -10 0 0 6c0,2 -1,3 -3,3 -2,0 -3,-1 -3,-3l0 -6c-8,0 3,0 -2,0 -1,0 -3,-2 -3,-4 0,-1 2,-3 3,-3 5,0 -6,0 2,0l0 -6c0,-2 2,-3 3,-3 2,0 3,1 3,3l0 6 10 0 0 -6c0,-1 1,-3 3,-3 2,0 3,2 3,3l0 6 2 0c2,0 3,2 3,4 0,1 -1,3 -3,3z"/>
   <path class="fil1" d="M61 35l17 9c2,2 3,6 2,8l0 0c-2,3 -5,4 -8,2l-18 -10 0 -9 7 0z"/>
  </g>
 </g>
</svg>
